<svg xmlns="http://www.w3.org/2000/svg" xmlns:xlink="http://www.w3.org/1999/xlink" version="1.1" width="300.45205533139847" height="200.2328774639579" enable-background="new 41.153 35.904 339.53 250" xml:space="preserve" style=""><rect id="backgroundrect" width="100%" height="100%" x="0" y="0" fill="none" stroke="none" class="" style=""/>



<g class="currentLayer" style=""><title>Layer 1</title><path d="M378.313,277.995c0,3.642-2.675,6.087-5.842,6.087v-0.022c-3.257,0.022-5.882-2.423-5.882-6.064s2.625-6.079,5.882-6.079  C375.639,271.916,378.313,274.354,378.313,277.995z M380.684,277.995c0-5-3.883-7.902-8.212-7.902c-4.357,0-8.241,2.902-8.241,7.902  c0,4.996,3.884,7.909,8.241,7.909C376.801,285.904,380.684,282.991,380.684,277.995 M371.109,278.663h0.879l2.039,3.577h2.237  l-2.257-3.729c1.166-0.083,2.125-0.638,2.125-2.207c0-1.951-1.343-2.578-3.622-2.578h-3.296v8.514h1.895V278.663 M371.109,277.222  v-2.05h1.318c0.717,0,1.693,0.057,1.693,0.933c0,0.951-0.506,1.117-1.352,1.117H371.109" id="svg_1"/><path fill="#74B71B" d="M56.44401326751709,91.38530118370056 c0,0 21.74,-32.076 65.148,-35.394 V44.354301183700564 c-48.08,3.861 -89.714,44.583 -89.714,44.583 s23.581,68.17 89.714,74.413 v-12.37 C73.05901326751709,144.87330118370056 56.44401326751709,91.38530118370056 56.44401326751709,91.38530118370056 zM121.5920132675171,126.37930118370056 v11.329 c-36.679,-6.54 -46.86,-44.669 -46.86,-44.669 s17.611,-19.509 46.86,-22.672 v12.43 c-0.022000000000001355,0 -0.03800000000000001,-0.006000000000000524 -0.05600000000000011,-0.006000000000000524 c-15.352,-1.843 -27.344,12.498 -27.344,12.498 S100.9120132675171,119.43130118370055 121.5920132675171,126.37930118370056 M121.5920132675171,22.890301183700565 v21.464 c1.411,-0.10900000000000012 2.822,-0.2 4.242,-0.24800000000000041 c54.661,-1.843 90.277,44.831 90.277,44.831 s-40.905,49.74 -83.522,49.74 c-3.906,0 -7.562,-0.3620000000000003 -10.996,-0.97 v13.272 c2.9370000000000003,0.3730000000000048 5.981,0.5930000000000006 9.159,0.5930000000000006 c39.658,0 68.336,-20.253 96.107,-44.224 c4.604,3.6870000000000003 23.454,12.657 27.329,16.585 c-26.404,22.106 -87.941,39.925 -122.828,39.925 c-3.363,0 -6.5920000000000005,-0.203 -9.767,-0.509 v18.649 h150.735 V22.890301183700565 H121.5920132675171 zM121.5920132675171,70.36630118370056 V55.99230118370056 c1.397,-0.09800000000000783 2.8040000000000003,-0.17200000000000001 4.242,-0.21800000000000044 c39.307,-1.234 65.095,33.778 65.095,33.778 s-27.853,38.684 -57.718,38.684 c-4.297,0 -8.151,-0.6910000000000406 -11.619,-1.8570000000000002 V82.79630118370056 c15.302,1.8490000000000002 18.382,8.609 27.582,23.945 l20.46,-17.253 c0,0 -14.936,-19.589 -40.114,-19.589 C126.7810132675171,69.89930118370056 124.1620132675171,70.09130118370057 121.5920132675171,70.36630118370056 " id="svg_3" class=""/></g></svg>